# xmcd CD database file
#
# Track frame offsets:
#	150
#	7948
#	22462
#	32880
#	44399
#	55241
#	66376
#	75179
#	85323
#	98484
#	109153
#	119703
#	132214
#	141555
#	156019
#	167170
#	177271
#	187712
#	199030
#	213301
#
# Disc length: 2920 seconds
#
# Revision: 3
# Processed by: cddbd v1.5.2PL0 Copyright (c) Steve Scherf et al.
# Submitted via: CDex 1.70beta2
#
DISCID=140b6614
DTITLE=Various Country - That's Country CD-12
DYEAR=1900
DGENRE=
TTITLE0=bill monroe - footprints in the snow
TTITLE1=don williams - when I'm with you
TTITLE2=merle haggard - corrinna corrinna
TTITLE3=carl perkins - born to boogie
TTITLE4=kenny rogers - always leaving always gone
TTITLE5=johnny cash - cry cry cry
TTITLE6=anne murray - paths of victory
TTITLE7=johnny paycheck - A-11
TTITLE8=porter wagoner - not a cloud in the sky
TTITLE9=patsy cline - honky tonky merry go around
TTITLE10=patsy cline - gotta lot of rhythm
TTITLE11=faron young - It's four in the morning
TTITLE12=jim reeves - dear hearts and gentle people
TTITLE13=merle haggard - tb blues
TTITLE14=waylon jennings - big mamou
TTITLE15=carl perkins - daddy sang bass
TTITLE16=jackson stonewall - things to talk about
TTITLE17=johnny lee - candy store
TTITLE18=johnny paycheck - someone to give my love to
TTITLE19=jim reeves - have I told you lately that I love you
EXTD=
EXTT0=
EXTT1=
EXTT2=
EXTT3=
EXTT4=
EXTT5=
EXTT6=
EXTT7=
EXTT8=
EXTT9=
EXTT10=
EXTT11=
EXTT12=
EXTT13=
EXTT14=
EXTT15=
EXTT16=
EXTT17=
EXTT18=
EXTT19=
PLAYORDER=
